<?xml version="1.0" encoding="UTF-8" standalone="no"?>
<!-- Generator: Adobe Illustrator 14.0.0, SVG Export Plug-In . SVG Version: 6.00 Build 43363)  -->

<svg
   xmlns:dc="http://purl.org/dc/elements/1.1/"
   xmlns:cc="http://creativecommons.org/ns#"
   xmlns:rdf="http://www.w3.org/1999/02/22-rdf-syntax-ns#"
   xmlns:svg="http://www.w3.org/2000/svg"
   xmlns="http://www.w3.org/2000/svg"
   xmlns:sodipodi="http://sodipodi.sourceforge.net/DTD/sodipodi-0.dtd"
   xmlns:inkscape="http://www.inkscape.org/namespaces/inkscape"
   version="1.0"
   id="Layer_1"
   x="0px"
   y="0px"
   width="59.139px"
   height="100px"
   viewBox="0 0 59.139 100"
   enable-background="new 0 0 59.139 100"
   xml:space="preserve"
   inkscape:version="0.48.0 r9654"
   sodipodi:docname="flag.svg"
   inkscape:export-filename="/Users/jace/Desktop/flag.png"
   inkscape:export-xdpi="19.828327"
   inkscape:export-ydpi="19.828327"><metadata
   id="metadata3859"><rdf:RDF><cc:Work
       rdf:about=""><dc:format>image/svg+xml</dc:format><dc:type
         rdf:resource="http://purl.org/dc/dcmitype/StillImage" /><dc:title></dc:title></cc:Work></rdf:RDF></metadata><defs
   id="defs3857" /><sodipodi:namedview
   pagecolor="#ffffff"
   bordercolor="#666666"
   borderopacity="1"
   objecttolerance="10"
   gridtolerance="10"
   guidetolerance="10"
   inkscape:pageopacity="0"
   inkscape:pageshadow="2"
   inkscape:window-width="1143"
   inkscape:window-height="772"
   id="namedview3855"
   showgrid="false"
   inkscape:zoom="2.63"
   inkscape:cx="-37.540766"
   inkscape:cy="50"
   inkscape:window-x="0"
   inkscape:window-y="0"
   inkscape:window-maximized="0"
   inkscape:current-layer="Layer_1" />
<path
   d="M 0,4.1787095 C 0,11.414668 0,18.651349 0,25.88803 c 0,11.727568 0,23.455857 0,35.183425 0,2.964562 0,5.929125 0,8.892966 0,1.450513 1.675,2.659153 3.682,2.659153 2.007,0 3.682,-1.20864 3.682,-2.658431 0,-7.235959 0,-14.47264 0,-21.708599 0,-11.72829 0,-23.456579 0,-35.184146 0,-2.963841 0,-5.9284038 0,-8.8929665 C 7.364,2.7303625 5.689,1.521 3.682,1.521 1.675,1.521 0,2.7296405 0,4.1787095 l 0,0 z"
   id="path3851"
   inkscape:connector-curvature="0"
   style="fill:#816894;fill-opacity:1" />
<path
   d="M59.139,3.716c-18.31,4.326-14.473-5.012-32.784-3.561c-8.022,0.636-14.783,6.548-16.001,7.672v30.382  c0,0,7.329-7.154,16.197-7.857c18.312-1.451,14.278,7.887,32.588,3.561V3.716z"
   id="path3853"
   style="fill:#816894;fill-opacity:1" />
</svg>