<?xml version="1.0" encoding="utf-8"?>
<!-- Generator: Adobe Illustrator 24.3.0, SVG Export Plug-In . SVG Version: 6.00 Build 0)  -->
<svg version="1.1" xmlns="http://www.w3.org/2000/svg" xmlns:xlink="http://www.w3.org/1999/xlink" x="0px" y="0px" width="511px"
	 height="511px" viewBox="0 0 511 511" style="enable-background:new 0 0 511 511;" xml:space="preserve">
<style type="text/css">
	.st0{fill:none;}
	.st1{fill:#F4F4F4;}
	.st2{fill:#E8A52D;}
	.st3{fill:#FDD131;}
	.st4{fill:#21174A;}
	.st5{fill:#E06026;}
	.st6{fill:#F7DB50;}
	.st7{fill:#EBBD1D;}
	.st8{fill:#FF6633;}
	.st9{fill:#FFC20E;}
	.st10{fill:#FFDD00;}
	.st11{fill:none;stroke:#E06026;stroke-width:0;stroke-linecap:round;stroke-linejoin:round;}
	.st12{display:none;fill:#F7DB50;}
</style>
<g id="guides">
</g>
<g id="Layer_1">
	<g>
		<circle class="st8" cx="255.5" cy="255.5" r="255.5"/>
		<path class="st10" d="M335.5,494.5C206.9,538.1,65,469.4,18.7,341.8c15.8,0,218.9,0,241,0c6.1,0,11.8,2.8,15.4,7.6
			c10.2,13.4,20.6,25.8,32.2,37.7c12.9,13.3,27,25.5,42.3,35.8h-0.1l5,3.2c0,0,0,0,0,0l0.4,0.3h0c22.3,13.8,43.4,21.7,61.1,21l2.6,0
			C394.4,468,366.3,484.2,335.5,494.5z"/>
		<path class="st10" d="M69.1,202.4c0-3.6,0-7.3,0.1-10.9c0.2-10.4,8.9-18.8,19.4-18.8h230.6c5.3,0,10.2,2.1,13.9,5.9
			c7.2,7.3,5.2,15.7,5.3,23.9c0,17.6,0.8,34.9,2.5,51.4h0c7.1,66,24,127.9,59.1,148h-26c-14.4-13.5-26.1-29.6-36.4-46.4
			c-9.3-15.2-17.3-31.2-24.3-47.6c-5.4-12.6-10.3-25.5-14.7-38.5c-3.1-9.3-11.8-15.5-21.6-15.5c0,0-205.4,0-205.4,0
			C70,237.3,69.1,220,69.1,202.4z"/>
		<path class="st10" d="M68.5,257.2H277c8.3,0,15.7,5.3,18.4,13.2c4.9,14.6,10.1,28,15.9,41.3c14.7,34.5,36.8,70.1,57.7,90.1h-0.1
			c0.3,0.3,3.5,3.3,3.8,3.5h0c7.8,7.1,16.3,13.5,26,17.7H356c-16.3-10.3-31-22.9-44.6-36.5c-12.1-12.3-23.2-25.3-33.6-39.1
			c-4.2-5.6-11-9-18.1-9c0,0-204.5,0-204.5,0c-10-18.7-19-39.7-27-62.5c-1.5-4.3-0.8-8.9,1.8-12.7c2.7-3.8,6.9-6,11.6-6H68.5z"/>
		<path class="st9" d="M497.8,323.7c-5.7,20.1-12.5,37.8-22.9,55.4v0.2c-0.1,0.2-0.3,0.4-0.4,0.7l0,0c-9.6,15.4-20.3,26.8-31.9,34.2
			v0c-24.5,15.4-44.3,9.1-64.8-8.8h36.3c7.4,0,14.6-2.8,21.6-8.2c27-23.2,37.5-63.8,45-97.5C493.6,300,501.6,311.3,497.8,323.7z"/>
		<path class="st9" d="M477.6,297.5c-8.3,41-27.9,102.8-63.4,104.3c-12.8,0.5-26-11.5-33.5-23.1c-22.3-33.6-31.5-81.7-35.9-121.5
			h122.9c4.1,0,8,1.8,10.7,4.9c2.7,3.1,3.9,7.1,3.3,11.1C480.5,281.6,479.1,289.8,477.6,297.5z"/>
		<path class="st12" d="M377.8,405.3c0,0-0.3,0-3.9-3.5h26c0,0,6.3,3.2,14.2,3.5H377.8z"/>
		<path class="st12" d="M356,422.9l5.7,3.5h52.5c0,0-7.6,0.1-16-3.7"/>
		<path class="st9" d="M361.7,426.4c0,0,33.3,0,49.7,0c26.7,0,43.7-17.2,43.7-17.2s-14,18.6-32.4,34.7
			C422.6,444,395.2,448.8,361.7,426.4z"/>
	</g>
</g>
</svg>
