<svg xmlns="http://www.w3.org/2000/svg" width="192" height="192" viewBox="0 0 192 192"><defs><style>.cls-1{fill:none;}.cls-2{fill:#fd0;}.cls-3{fill:#f63;}.cls-4{fill:#ffc20e;}</style></defs><g id="Layer_1" data-name="Layer 1"><path class="cls-1" d="M159.9454,164.1911q-.6723.63-1.3543,1.2492Q159.2751,164.8234,159.9454,164.1911Z"/><path class="cls-1" d="M155.8272,165.8062c-.1919.0164-.3683.0326-.561.0326-.5424,0-1.1076-.0326-1.6828-.0814-.1063-.0091-.2116-.0162-.3191-.027q-.8379-.083-1.7172-.2322c-.1134-.0194-.2287-.042-.3431-.0628-.61-.1112-1.2285-.2381-1.8632-.3947l-.011-.0024c-.6374-.1576-1.29-.3448-1.9489-.5471-.1242-.038-.2476-.0746-.3728-.1141q-.9572-.3036-1.94-.668c-.1278-.0474-.2569-.0977-.3853-.1468-.68-.2581-1.3643-.531-2.0581-.831l-.0154-.0061c-.6983-.3026-1.4048-.6319-2.1146-.975-.131-.0634-.2616-.1254-.3929-.19q-1.0322-.5088-2.0747-1.0725c-.0467-.025-.0931-.051-.1392-.0765h-.02c.0471.026.0947.0525.1421.0782q1.0422.5637,2.0747,1.0723c.1313.0648.2619.1269.393.19.71.3434,1.4163.6727,2.1147.9753l.0155.0062c.6935.3,1.3785.5725,2.0578.831.1284.0488.2577.0993.3853.1467q.9827.364,1.9406.6678c.1249.04.2483.0761.3728.1144.6589.2022,1.3115.3894,1.9486.547l.011.0025c.6349.1565,1.2536.2834,1.8632.3946.1147.0209.23.0434.3431.0626q.8789.1491,1.7172.2324c.1075.0105.2128.0179.3193.027.5753.0488,1.14.0815,1.6826.0815.1929,0,.3691-.0165.561-.0327.0349-.0029.0955-.0069.13-.0069h2.2446l.0017-.0014h-2.2291C155.9224,165.8,155.8618,165.8033,155.8272,165.8062Z"/><path class="cls-1" d="M164.2544,159.8769c-.3026.3232-.6059.6457-.9132.9642Q163.8017,160.3629,164.2544,159.8769Z"/><path class="cls-1" d="M162.3539,161.8523q-.5618.5653-1.1343,1.12C161.6,162.6013,161.98,162.23,162.3539,161.8523Z"/><path class="cls-1" d="M163.5623,158.6088c.3957-.174.7716-.3679,1.1515-.5576.1792-.09.3677-.17.5429-.2631.5743-.3038,1.1282-.6231,1.6527-.9569l.0034-.0019.013-.0076,0,0c.05-.031.1-.0626.15-.094l.0162-.0192c-.0612.0383-.1223.0768-.1836.1146l0,.0005-.013.0079-.0034.002c-.5242.3337-1.0781.653-1.6524.9566-.1753.0928-.364.1735-.5431.2631-.38.19-.7559.3838-1.1515.5578a1.1906,1.1906,0,0,1-.1917.1041,20.927,20.927,0,0,1-5.6051,1.5365,20.9171,20.9171,0,0,0,5.622-1.5382A1.1812,1.1812,0,0,0,163.5623,158.6088Z"/><polygon class="cls-1" points="187.614 114.887 187.615 114.888 187.615 114.887 187.614 114.887"/><path class="cls-1" d="M104.04,97.2349l-87.937-.0009h0l87.9049.0009a6.634,6.634,0,0,1,6.2979,4.52c7.0276,20.8817,16.46,37.9285,26.7448,48.4214q1.0281,1.0488,2.0674,2.01l.3549.3279h.009c.5159.4685,1.03.9193,1.5415,1.3473.0358.03.0722.0626.108.0923.6054.5038,1.207.975,1.8046,1.4215.0616.0459.1232.0942.1845.14.5792.4278,1.1537.8244,1.7241,1.1977.0761.05.1524.1016.2287.15q.84.54,1.6637.9966c.0464.0258.0943.0587.14.084h.0319c-.0461-.0253-.0938-.0582-.14-.084q-.8242-.459-1.664-.9966c-.0761-.0488-.1524-.1006-.2287-.15-.57-.3733-1.1446-.77-1.7241-1.1977-.0611-.0454-.1229-.0937-.1843-.14-.5976-.4465-1.1993-.9177-1.8046-1.4215-.036-.03-.0721-.0621-.1079-.0923-.5115-.428-1.0259-.8788-1.5415-1.3473h-.0091l-.3549-.3279q-1.0387-.96-2.0676-2.01c-10.2848-10.4929-19.7172-27.54-26.7448-48.4214a6.6323,6.6323,0,0,0-6.2977-4.52Z"/><path class="cls-1" d="M126.4084,72.4771c-.04,1.4548-.0655,2.786-.0655,3.6815,0,6.3785.3018,12.6244.8719,18.6074h-.014l.135,1.3565c2.3425,23.4235,8.8054,42.5794,17.2836,51.241.3723.3816.7483.735,1.1255,1.0747.0788.07.1571.1418.2359.2108.3679.321.7377.6241,1.1105.9053.0675.0508.1357.0982.2034.1478.1581.1158.3154.2356.4744.344h.0319c-.1587-.1084-.3161-.2282-.4741-.344-.0677-.05-.136-.097-.2037-.1478-.3725-.2812-.7426-.5843-1.11-.9053-.079-.069-.1573-.14-.2358-.2108-.3775-.34-.7535-.6931-1.1255-1.0747-8.4785-8.6616-14.9411-27.8175-17.2836-51.241l-.135-1.3565h.014c-.57-5.983-.872-12.2289-.872-18.6074,0-.8955.026-2.2267.0655-3.6815a6.6479,6.6479,0,0,0-6.641-6.832h-.0322a6.6481,6.6481,0,0,1,6.6411,6.832Z"/><path class="cls-1" d="M185.0561,115.475a6.3657,6.3657,0,0,0-4.4865-2.3919l-.001.0049a6.3588,6.3588,0,0,1,4.4556,2.387,6.5376,6.5376,0,0,1,.8722,5.84,100.6678,100.6678,0,0,1-3.9053,11.3928,93.29,93.29,0,0,1-4.4706,9.0432c-.0621.1008-.12.2037-.1857.3026a.9213.9213,0,0,0-.0661.1043c-3.5153,5.6341-7.4381,9.8531-11.6591,12.5433-.02.0123-.04.0275-.0594.04-.0473.03-.1006.056-.148.0859a24.1673,24.1673,0,0,1-3.0535,1.5991,1.1782,1.1782,0,0,0-.1745.0936,18.0126,18.0126,0,0,1-6.4849,1.41c-.1556.0152-.3117.0122-.4643.0132l.024,0c.1551-.001.3142.0017.4722-.0135a18.0113,18.0113,0,0,0,6.485-1.41,1.1821,1.1821,0,0,1,.1744-.0936,24.1333,24.1333,0,0,0,3.0535-1.5991c.0477-.03.1009-.056.148-.0859.02-.0123.04-.0275.06-.04,4.2209-2.69,8.1437-6.9092,11.6588-12.5433a1.0235,1.0235,0,0,1,.0661-.1043c.0657-.0984.1236-.2013.1855-.3021a93.24,93.24,0,0,0,4.4713-9.0447,100.7694,100.7694,0,0,0,3.9051-11.3918A6.5379,6.5379,0,0,0,185.0561,115.475Z"/><path class="cls-1" d="M166.7533,157.1083c-.312.3608-.63.7154-.9478,1.0713C166.1228,157.8237,166.4413,157.4691,166.7533,157.1083Z"/><path class="cls-1" d="M81.79,188.4419c-.1382-.0213-.2761-.0434-.4141-.0653C81.5137,188.3985,81.6516,188.4206,81.79,188.4419Z"/><path class="cls-1" d="M90.9836,189.3809c-.7858-.0415-1.5721-.081-2.3538-.1416C89.4115,189.3011,90.1978,189.3387,90.9836,189.3809Z"/><path class="cls-1" d="M74.6652,187.0607c-.05-.0115-.1-.0238-.15-.0358Q74.59,187.0429,74.6652,187.0607Z"/><path class="cls-1" d="M159.1153,149.2061c.0523-.0226.1048-.0449.1576-.0685.2567-.1141.5132-.2425.77-.3789.0732-.0393.1468-.0759.22-.1171.2432-.1357.4862-.2859.7289-.4417.0756-.0484.1512-.0923.2265-.1426.3112-.2082.6217-.43.9312-.6717a23.3851,23.3851,0,0,0,4.0805-4.2541c5.1065-6.674,9.4136-17.8874,12.1321-31.5773.5689-2.8562,1.0759-5.8862,1.5049-9.0067a4.6946,4.6946,0,0,0-4.6524-5.3135h-.0322a4.6946,4.6946,0,0,1,4.6524,5.3135c-.429,3.1205-.936,6.15-1.5046,9.0067-2.7188,13.69-7.0259,24.9033-12.1323,31.5773a23.3787,23.3787,0,0,1-4.0806,4.2541c-.31.2412-.62.4635-.9311.6717-.0754.05-.1509.0942-.2263.1426-.2429.1558-.4857.306-.7291.4417-.0734.0412-.147.0778-.22.1171-.2565.1364-.5127.2648-.77.3789-.0526.0236-.1051.0459-.1574.0685-.2945.1259-.59.24-.8844.3364l-.0427.0145a9.5013,9.5013,0,0,1-2.9232.472,9.4948,9.4948,0,0,0,2.9551-.472l.0429-.0145C158.5261,149.4458,158.8208,149.332,159.1153,149.2061Z"/><path class="cls-1" d="M40.0889,170.9372l-.0265-.02Z"/><path class="cls-1" d="M155.249,168.3085c-3.6319,0-11.3312-1.04-22.2619-7.8973h-.01l-.2913-.1841-.0123-.0076a97.7268,97.7268,0,0,1-17.0208-13.8949l-.0456-.0451A145.5955,145.5955,0,0,1,102.84,131.423a6.6374,6.6374,0,0,0-5.28-2.6h-.0319a6.6367,6.6367,0,0,1,5.28,2.6q4.3764,5.8006,8.8906,10.7651c.3961.4361.7937.8616,1.1915,1.2879A101.4843,101.4843,0,0,0,132.6418,160.22l.0125.0076.2911.1841h.01c10.93,6.8575,18.63,7.8973,22.2617,7.8973h.0115a93.7929,93.7929,0,0,1-18.3613,11.7946c-.2292.1116-.4584.2238-.6888.3335q-1.2182.5825-2.4562,1.1279c-.5718.2526-1.1441.5039-1.7209.7444q-.7.2934-1.405.5753c-.9012.359-1.8063.7087-2.7187,1.04-.3078.1119-.6185.2184-.928.3273-1.0545.37-2.1125.7309-3.18,1.063-.0441.0137-.089.0265-.1335.04q-1.7577.5438-3.5389,1.016c-.109.0292-.2177.06-.3271.0891q-1.8009.4727-3.6227.8737-.16.0354-.321.07-1.8693.4053-3.7576.7375l-.0483.0081q-3.8124.662-7.691,1.0052c-.1561.0138-.3119.0285-.4682.0417q-1.8009.1521-3.6126.2344c-.19.0086-.3816.0145-.5721.0219-1.2283.0486-2.4591.0795-3.693.08l.0169,0c1.24,0,2.4758-.0314,3.71-.08.1894-.0076.38-.0133.5688-.0219q1.8112-.0825,3.6119-.2341c.1578-.0133.3151-.0282.4726-.0422q3.8731-.3465,7.6875-1.0048l.05-.0083q1.8885-.3291,3.7577-.7377.1593-.0346.319-.07,1.8219-.402,3.6241-.8744c.1092-.029.2179-.06.3271-.0889q1.7822-.4752,3.5439-1.0175c.04-.0125.0815-.024.122-.0368,1.0695-.3325,2.1295-.6938,3.186-1.0644.31-.1092.6209-.2159.93-.3281.9118-.3308,1.8164-.68,2.7173-1.0393q.7057-.2825,1.4058-.5753c.575-.24,1.1458-.4906,1.7159-.7424q1.24-.5488,2.4616-1.13c.23-.1095.4584-.2217.6877-.3331a93.8111,93.8111,0,0,0,18.362-11.7948Z"/><path class="cls-2" d="M155.2318,152.5136a13.0614,13.0614,0,0,1-7.3993-2.4675h-.0634c-.159-.1084-.3163-.2282-.4744-.344-.0677-.05-.1359-.097-.2034-.1478-.3728-.2812-.7426-.5843-1.1105-.9053-.0788-.069-.1571-.14-.2359-.2108-.3772-.34-.7532-.6931-1.1255-1.0747-8.4782-8.6616-14.9411-27.8175-17.2836-51.241l-.135-1.3565h.014c-.57-5.983-.8719-12.2289-.8719-18.6074,0-.8955.026-2.2267.0655-3.6815a6.6481,6.6481,0,0,0-6.6411-6.832H33.6533a6.6574,6.6574,0,0,0-6.6555,6.454q-.0405,2.0173-.0405,4.06c0,6.3789.292,12.6325.87,18.6074h76.1846a9.1374,9.1374,0,0,1,8.6339,6.2062q.9306,2.7649,1.8828,5.3509c.0209.0564.0417.11.0624.1666q.441,1.1946.8844,2.3538c.0678.1755.1355.3441.2033.5181.25.6467.5006,1.29.7522,1.9192.0922.2307.1853.453.2775.6812.2273.5613.4545,1.1226.6828,1.67.108.26.2167.5107.3252.7672.214.5067.428,1.0145.6427,1.5093.1159.267.2322.5252.3478.7888.2066.4692.413.9394.62,1.3979.1274.2824.255.5561.3826.8346.1961.4278.3919.8573.588,1.275.135.2874.27.5654.4042.8481.1888.3962.3775.7937.5662,1.1808.1424.2923.2847.5757.4271.8631.1808.3649.3617.7321.5426,1.0889.1462.29.2923.5706.4388.8548.1767.3436.3536.6889.53,1.0251.1492.2842.2982.56.4471.8391.1723.3227.3449.6469.5166.9625.152.2786.3031.5493.4546.8224.1686.3044.3374.61.5058.9081.1543.2734.3082.54.4621.8074.1632.284.3266.5691.4894.847.1558.2662.3112.5257.4663.786.16.2695.3212.54.481.8035.1556.2567.3107.5071.4655.7581.1569.2543.3142.509.47.7574s.3124.4923.468.7358c.1529.2388.3056.4783.4575.7117.1571.2412.3129.4768.469.7122.149.2253.2982.45.4462.67.1558.2319.3107.4582.4658.6842.1448.2116.29.4226.4334.6288.1561.2243.3112.4437.4663.6619.14.198.2807.3958.42.5892.1553.215.309.4253.4626.6347.1364.1865.2734.3725.4089.5541.1516.2032.3018.402.4515.6.1355.178.27.3554.404.5292.1487.1926.296.3813.443.5683.1308.1672.2618.3331.3912.4958q.219.2747.4351.54c.1281.1586.2562.3154.3828.4693q.2114.2562.4192.504c.1259.15.2513.299.3758.4447q.2058.242.4083.4757.1822.21.3615.4137.201.2291.3991.45.176.1962.3492.3868.1929.2116.3824.4167.1719.186.3411.366.186.198.3686.3889.1632.1709.3233.3358.1818.1871.3595.3671c.1028.1041.2044.2059.3053.3066.1166.116.2324.2309.346.3423.0994.0974.1976.1924.2945.2862.1088.1048.2167.2086.3225.309.04.0377.0783.0736.1178.1106h.0322c.1168.11.2356.2234.3487.3279.8327.77,1.662,1.48,2.4846,2.14h11.9068Z"/><path class="cls-3" d="M192,96A96,96,0,1,0,4.9214,126.3546H4.8789L5.46,128a95.8394,95.8394,0,0,0,33.1116,44.8831c.0567.0423.1142.0835.1711.1257q1.3834,1.0275,2.8017,2.0058.7058.4878,1.42.964c.3313.2194.6614.44.9954.6555q1.2936.8379,2.6152,1.6353c.0964.0579.1936.1143.29.172A95.3216,95.3216,0,0,0,84.67,191.328c.0273.0035.0548.0064.0818.0094q3.5285.4137,7.1306.5684c.231.01.4621.0181.6936.0265,1.1372.04,2.2775.0677,3.4243.0677,1.3675,0,2.7271-.0358,4.0808-.0928.1517-.0063.3036-.01.455-.0171q1.9872-.0931,3.9513-.2695c.1531-.0138.3063-.0268.4589-.041q2.0093-.1866,3.9944-.4548c.0923-.0127.1841-.026.2764-.0387a95.2648,95.2648,0,0,0,12.3728-2.5548c.09-.0246.18-.0479.2694-.0729q1.8441-.5166,3.6568-1.1069c.23-.0743.4609-.1487.6908-.2248q1.6493-.5481,3.2722-1.1537c.3561-.1325.71-.269,1.0651-.4057.9677-.3745,1.93-.76,2.8825-1.1647.4888-.2072.9728-.4241,1.4583-.6391q.86-.3825,1.71-.7824,1.3412-.6262,2.6618-1.2951.4209-.2132.8391-.4307,1.82-.9424,3.6-1.9636l.0832-.0476a95.5552,95.5552,0,0,0,15.6933-11.2426c.0211-.0165.0479-.0231.0682-.041.1627-.1436.3166-.296.4783-.4408l1.9413-1.7187h-.0763a95.7849,95.7849,0,0,0,14.8731-17.9455c.0839-.13.1666-.2613.25-.3919q.853-1.3419,1.6635-2.7146c.2427-.41.4857-.8192.7223-1.2327.1192-.2091.2468-.4123.3646-.6226.01-.0148.0221-.0322.0305-.0457a1.058,1.058,0,0,0,.0665-.1207c.042-.0746.0876-.1466.1291-.2214.0684-.1222.1335-.241.198-.3593l.0292-.0525a6.8289,6.8289,0,0,0,.4052-.7071,1.3812,1.3812,0,0,0,.1775-.3129c.1016-.1745.1911-.345.2824-.5156.0366-.0682.0783-.1394.1132-.2062.0473-.0905.0881-.1735.1332-.2618.082-.161.1672-.3264.2423-.4769.053-.106.103-.214.1534-.321l.11-.23-.0064-.003c.28-.54.5593-1.0975.818-1.6337a1.788,1.788,0,0,0,.0935-.2265c.2825-.57.5475-1.1221.7819-1.666.1482-.316.2746-.613.39-.9021.1323-.3085.2567-.6361.3868-.95A95.46,95.46,0,0,0,192,96Zm-55.7891,84.4364q-1.2207.5833-2.4616,1.13c-.57.2518-1.1409.5021-1.7159.7424q-.7.2931-1.4058.5753c-.9009.359-1.8055.7085-2.7173,1.0393-.3087.1122-.62.2189-.93.3281-1.0565.3706-2.1165.7319-3.186,1.0644-.0405.0128-.0815.0243-.122.0368q-1.76.545-3.5439,1.0175c-.1092.0292-.2179.06-.3271.0889q-1.8016.4729-3.6241.8744-.1595.035-.319.07-1.87.4053-3.7577.7377l-.05.0083q-3.81.6619-7.6875,1.0048c-.1575.014-.3148.0289-.4726.0422q-1.8006.1517-3.6119.2341c-.1892.0086-.3794.0143-.5688.0219-1.234.0486-2.47.08-3.71.08l-.0169,0-.0152,0c-1.0973,0-2.19-.0256-3.2813-.0638q-.3478-.0119-.6955-.0265c-.337-.0145-.6712-.043-1.0075-.0609-.7858-.0422-1.5721-.08-2.3538-.1416q-1.7242-.1339-3.4346-.3311c-.0442-.0051-.0884-.01-.1325-.0152-1.0966-.1291-2.1862-.2842-3.2729-.4511-.1382-.0213-.2761-.0434-.4141-.0653q-3.3907-.5367-6.71-1.3159-.075-.0177-.15-.0358A93.6747,93.6747,0,0,1,48.738,176.7016q-.2205-.13-.44-.26-1.2137-.72-2.4043-1.4764c-.3134-.2-.6241-.4027-.9351-.606q-.8048-.5234-1.5972-1.0643c-.4724-.3225-.9436-.647-1.41-.9778-.1328-.0942-.2636-.1912-.3961-.2859-.4957-.3559-.978-.7286-1.4664-1.0938l-.0265-.02A93.9765,93.9765,0,0,1,8.386,128.8226H97.56a6.6374,6.6374,0,0,1,5.28,2.6A145.5955,145.5955,0,0,0,115.6075,146.28l.0456.0451A97.7268,97.7268,0,0,0,132.6739,160.22l.0123.0076.2913.1841h.01c10.9307,6.8575,18.63,7.8973,22.2619,7.8973h.0116a93.8111,93.8111,0,0,1-18.362,11.7948C136.6693,180.2147,136.4406,180.3269,136.2109,180.4364Zm19.0222-30.4074a9.529,9.529,0,0,1-2.9487-.4712c-.0376-.0123-.0754-.0226-.1132-.0354-.2751-.092-.5492-.2007-.8234-.318-.0763-.0327-.1531-.0651-.2294-.1-.2484-.1127-.4963-.2374-.7434-.37-.107-.0576-.2138-.1185-.3208-.18-.2223-.1278-.4444-.2623-.6658-.4071-.1406-.0923-.28-.1919-.4206-.2911-.1917-.135-.3834-.27-.5741-.4172s-.3772-.3065-.5654-.4655c-.1451-.1225-.2908-.2381-.4356-.3679-.337-.3031-.673-.6222-1.007-.965q-.3759-.3843-.7468-.7984c-.0775-.0866-.1534-.18-.23-.268-.1691-.1936-.3385-.3865-.5058-.5895-.09-.11-.18-.227-.27-.3394-.1517-.1894-.3038-.3769-.454-.5742-.097-.1269-.1922-.2614-.2884-.3917-.1416-.1912-.284-.3807-.4238-.5785-.0987-.1394-.1956-.2857-.2936-.4282-.1354-.1979-.2716-.3934-.4061-.5971-.1-.151-.1976-.3093-.2965-.4639-.13-.2037-.2614-.4052-.39-.6145-.1013-.1649-.2012-.3362-.3018-.5044-.1237-.2076-.2484-.413-.3711-.6258-.1011-.1757-.2005-.3575-.3007-.5367-.12-.215-.2412-.4283-.36-.6482-.0987-.1825-.1956-.3708-.2933-.5566-.1183-.225-.2368-.4486-.3537-.6785-.0962-.19-.1911-.3851-.2864-.5778-.1158-.2348-.2321-.4685-.3467-.7082-.094-.1966-.1865-.3984-.2793-.5986-.1132-.2432-.2268-.4855-.3385-.7338-.0927-.2059-.1838-.4167-.2753-.6258-.1095-.25-.2192-.499-.3272-.7535-.0915-.2155-.1813-.4356-.2716-.6545-.1056-.2555-.2116-.5107-.3156-.7706-.09-.2251-.1787-.4543-.2675-.6825-.1019-.2621-.2042-.5238-.3046-.79-.0871-.2307-.173-.4653-.2592-.6994-.1-.2717-.2-.5429-.2977-.8188-.0849-.238-.1686-.4795-.2523-.7207-.0962-.2781-.1924-.5559-.2873-.8377-.0828-.2454-.164-.4942-.2452-.7426-.0933-.2849-.1865-.57-.2783-.859-.08-.2532-.1593-.51-.2386-.7659-.0893-.29-.1789-.58-.2667-.8744q-.1174-.3933-.2329-.7918c-.0859-.295-.1713-.5907-.2558-.8894-.0756-.2687-.15-.54-.2248-.8113-.0832-.3034-.1661-.6074-.2474-.9142q-.1086-.4091-.2149-.8229-.1194-.4638-.2374-.9331c-.07-.2829-.14-.5684-.2095-.854q-.1131-.4653-.2236-.9351-.1024-.4377-.2027-.88-.1083-.4752-.214-.9549-.0972-.4451-.1932-.8951-.102-.48-.202-.9642-.0945-.462-.1875-.9277-.0952-.48-.1882-.964-.0914-.4767-.18-.9571-.0891-.482-.1757-.968-.0876-.4891-.1723-.9829-.0839-.4874-.1649-.9787-.0828-.5-.163-1.0035-.0772-.486-.1516-.9758-.08-.5212-.1566-1.0457-.07-.4769-.1367-.9572-.0759-.5426-.15-1.0884-.0633-.4731-.1237-.95-.0717-.56-.1408-1.1226c-.0376-.31-.0737-.6221-.11-.9338q-.0677-.5827-.1328-1.1684c-.0117-.11-.023-.22-.0348-.33h45.2793a4.6946,4.6946,0,0,1,4.6524,5.3135c-.429,3.1205-.936,6.15-1.5049,9.0067-2.7185,13.69-7.0256,24.9033-12.1321,31.5773a23.3851,23.3851,0,0,1-4.0805,4.2541c-.3095.2412-.62.4635-.9312.6717-.0753.05-.1509.0942-.2265.1426-.2427.1558-.4857.306-.7289.4417-.0736.0412-.1472.0778-.22.1171-.2564.1364-.5129.2648-.77.3789-.0528.0236-.1053.0459-.1576.0685-.2945.1259-.5892.24-.8842.3364l-.0429.0145A9.4948,9.4948,0,0,1,155.2331,150.029Zm24.2994-39.4685v0Zm-69.1949-8.8054c7.0276,20.8817,16.46,37.9285,26.7448,48.4214q1.0285,1.0488,2.0676,2.01l.3549.3279h.0091c.5156.4685,1.03.9193,1.5415,1.3473.0358.03.0719.0626.1079.0923.6053.5038,1.207.975,1.8046,1.4215.0614.0459.1232.0942.1843.14.5795.4278,1.154.8244,1.7241,1.1977.0763.05.1526.1016.2287.15q.84.54,1.664.9966c.0463.0258.094.0587.14.084h.0108a18.02,18.02,0,0,0,7.663,2.4416,5.8822,5.8822,0,0,0,.6236.0246h.06c.2381,0,.4741-.002.6216-.0194q.9288-.0228,1.8606-.1392a20.927,20.927,0,0,0,5.6051-1.5365,1.1906,1.1906,0,0,0,.1917-.1041c.3956-.174.7716-.3679,1.1515-.5578.1791-.09.3678-.17.5431-.2631.5743-.3036,1.1282-.6229,1.6524-.9566l.0034-.002.013-.0079,0-.0005c.0613-.0378.1224-.0763.1836-.1146l-.0162.0192.0333-.0209c-.1163.136-.2385.2668-.3558.402-.312.3608-.63.7154-.9478,1.0713q-.7658.858-1.5511,1.6973-.4539.4848-.9132.9642-.49.5091-.9873,1.0112c-.3743.3772-.7539.749-1.1343,1.12q-.6321.6151-1.2742,1.2192-.6723.63-1.3543,1.2492c-.1313.1183-.2577.2415-.3894.3593h-.0153l-.0017.0014H155.94c-.0346,0-.0952.004-.13.0069-.1919.0162-.3681.0327-.561.0327-.5424,0-1.1073-.0327-1.6826-.0815-.1065-.0091-.2118-.0165-.3193-.027q-.8377-.0832-1.7172-.2324c-.1133-.0192-.2284-.0417-.3431-.0626-.61-.1112-1.2283-.2381-1.8632-.3946l-.011-.0025c-.6371-.1576-1.29-.3448-1.9486-.547-.1245-.0383-.2479-.0749-.3728-.1144q-.9576-.3038-1.9406-.6678c-.1276-.0474-.2569-.0979-.3853-.1467-.6793-.2585-1.3643-.5311-2.0578-.831l-.0155-.0062c-.6984-.3026-1.405-.6319-2.1147-.9753-.1311-.063-.2617-.1251-.393-.19q-1.0319-.5083-2.0747-1.0723c-.0474-.0257-.095-.0522-.1421-.0782q-1.9295-1.05-3.8749-2.277c-.098-.0616-.1952-.1286-.2928-.1907h-.0322c-.2491-.1593-.4979-.3242-.7468-.4872-.3293-.2152-.6587-.4277-.9876-.65-.3-.2032-.6-.4152-.9-.6241-.32-.2223-.64-.4417-.959-.67-.3083-.2209-.616-.4514-.9238-.6784-.31-.2285-.6194-.453-.9284-.6874-.3154-.2388-.63-.4872-.9441-.7326-.3019-.2348-.6043-.466-.9054-.7068-.3183-.2547-.6359-.519-.9539-.78-.2965-.2432-.593-.4825-.8889-.7313-.3223-.271-.6438-.5522-.9653-.8295-.2906-.2511-.5814-.4972-.8712-.7532-.3232-.2852-.6452-.5807-.9675-.8725-.2878-.2606-.5764-.5168-.8636-.7829-.32-.2959-.6386-.602-.9576-.9043-.2886-.2739-.5782-.5427-.8663-.8219-.3137-.3034-.6261-.6175-.9388-.9272-.2928-.29-.5858-.5748-.8778-.87-.2994-.3028-.5976-.616-.8965-.9247-.3046-.3142-.61-.6241-.9137-.9447-.28-.2949-.5584-.6-.8377-.9-.32-.3446-.6417-.6847-.9613-1.0362-.2545-.2792-.5075-.5686-.7617-.8523-.3436-.3841-.688-.7642-1.0308-1.1557-.2037-.2331-.4062-.4744-.61-.71-.3912-.4531-.7829-.9036-1.1724-1.3665-.1087-.13-.2167-.2638-.3254-.3937q-2.4856-2.9737-4.93-6.2086a8.729,8.729,0,0,0-.6818-.7993,9.1318,9.1318,0,0,0-6.5647-2.787H21.5078a167.1605,167.1605,0,0,1-9.883-22.9317,4.5733,4.5733,0,0,1,.6025-4.2,4.662,4.662,0,0,1,3.8435-1.9886h.0321l87.937.0009a6.6323,6.6323,0,0,1,6.2977,4.52Zm67.2146,39.9964c-.0619.1008-.12.2037-.1855.3021a1.0235,1.0235,0,0,0-.0661.1043c-3.5151,5.6341-7.4379,9.8531-11.6588,12.5433-.02.0123-.0395.0275-.06.04-.0471.03-.1.056-.148.0859a24.1333,24.1333,0,0,1-3.0535,1.5991,1.1821,1.1821,0,0,0-.1744.0936,18.0113,18.0113,0,0,1-6.485,1.41c-.158.0152-.3171.0125-.4722.0135l-.024,0-.0081,0c-.0582,0-.1183,0-.1819-.0017l-.041-.001c-.0731-.0022-.1519-.0059-.25-.0157a10.559,10.559,0,0,1-1.1422-.1267c-.07-.0113-.1389-.0206-.2091-.0331q-.5655-.1005-1.1525-.2609c-.0741-.02-.1485-.0429-.2228-.0645-.4084-.1186-.8217-.2513-1.2441-.4116l-.01-.0042c-.4217-.1605-.8512-.3475-1.2851-.5487-.075-.0346-.1489-.0675-.2243-.1036q-.6335-.303-1.2825-.6624c-.0805-.0449-.1615-.0918-.2425-.1374-.4476-.2543-.8987-.5223-1.3552-.8155l-.0353-.0238c-.45-.29-.9037-.6028-1.36-.9294-.0793-.0567-.1583-.112-.2378-.17q-.6736-.49-1.355-1.0332c-.0356-.0285-.0709-.058-.1065-.0864h.0319c-.8226-.66-1.6519-1.37-2.4846-2.14-.1131-.1045-.2319-.2179-.3487-.3279h-.0322c-.04-.037-.078-.0729-.1178-.1106-.1058-.1-.2137-.2042-.3225-.309-.0969-.0938-.1951-.1888-.2945-.2862-.1136-.1114-.2294-.2263-.346-.3423-.1009-.1007-.2025-.2025-.3053-.3066q-.1778-.18-.3595-.3671-.16-.1653-.3233-.3358-.1821-.1906-.3686-.3889-.1689-.18-.3411-.366-.1893-.2046-.3824-.4167-.173-.19-.3492-.3868-.1977-.2216-.3991-.45-.1793-.2035-.3615-.4137-.2023-.2341-.4083-.4757c-.1245-.1457-.25-.2945-.3758-.4447q-.2083-.2484-.4192-.504c-.1266-.1539-.2547-.3107-.3828-.4693q-.2165-.2658-.4351-.54c-.1294-.1627-.26-.3286-.3912-.4958-.147-.187-.2943-.3757-.443-.5683-.1338-.1738-.2685-.3512-.404-.5292-.15-.1978-.3-.3966-.4515-.6-.1355-.1816-.2725-.3676-.4089-.5541-.1536-.2094-.3073-.42-.4626-.6347-.1392-.1934-.28-.3912-.42-.5892-.1551-.2182-.31-.4376-.4663-.6619-.1438-.2062-.2886-.4172-.4334-.6288-.1551-.226-.31-.4523-.4658-.6842-.148-.22-.2972-.4447-.4462-.67-.1561-.2354-.3119-.471-.469-.7122-.1519-.2334-.3046-.4729-.4575-.7117-.1556-.2435-.3114-.4867-.468-.7358s-.3131-.5031-.47-.7574c-.1548-.251-.31-.5014-.4655-.7581-.16-.2635-.32-.534-.481-.8035-.1551-.26-.3105-.52-.4663-.786-.1628-.2779-.3262-.563-.4894-.847-.1539-.2677-.3078-.534-.4621-.8074-.1684-.2977-.3372-.6037-.5058-.9081-.1515-.2731-.3026-.5438-.4546-.8224-.1717-.3156-.3443-.64-.5166-.9625-.1489-.2788-.2979-.5549-.4471-.8391-.1765-.3362-.3534-.6815-.53-1.0251-.1465-.2842-.2926-.5652-.4388-.8548-.1809-.3568-.3618-.724-.5426-1.0889-.1424-.2874-.2847-.5708-.4271-.8631-.1887-.3871-.3774-.7846-.5662-1.1808-.1347-.2827-.2692-.5607-.4042-.8481-.1961-.4177-.3919-.8472-.588-1.275-.1276-.2785-.2552-.5522-.3826-.8346-.2069-.4585-.4133-.9287-.62-1.3979-.1156-.2636-.2319-.5218-.3478-.7888-.2147-.4948-.4287-1.0026-.6427-1.5093-.1085-.2565-.2172-.5073-.3252-.7672-.2283-.5473-.4555-1.1086-.6828-1.67-.0922-.2282-.1853-.4505-.2775-.6812-.2516-.629-.5022-1.2725-.7522-1.9192-.0678-.174-.1355-.3426-.2033-.5181q-.4435-1.1577-.8844-2.3538c-.0207-.0562-.0415-.11-.0624-.1666q-.9512-2.5869-1.8828-5.3509a9.1374,9.1374,0,0,0-8.6339-6.2062H27.8278c-.5785-5.9749-.87-12.2285-.87-18.6074q0-2.04.0405-4.0595a6.6574,6.6574,0,0,1,6.6555-6.454H119.8a6.6479,6.6479,0,0,1,6.641,6.832c-.04,1.4548-.0655,2.786-.0655,3.6815,0,6.3785.3016,12.6244.872,18.6074h-.014l.135,1.3565c2.3425,23.4235,8.8051,42.5794,17.2836,51.241.372.3816.748.735,1.1255,1.0747.0785.07.1568.1418.2358.2108.3677.321.7378.6241,1.11.9053.0677.0508.136.0982.2037.1478.158.1158.3154.2356.4741.344h.0315a13.0614,13.0614,0,0,0,7.3993,2.4675,13.6222,13.6222,0,0,0,8.41-3.1865,25.9247,25.9247,0,0,0,4.52-4.7005q.5-.6535.9878-1.356c.1154-.1656.2275-.3436.3422-.5132.2081-.3094.4172-.6157.6221-.9379.1308-.2062.2584-.4249.3878-.6362.184-.3.3693-.5963.55-.9073.1372-.2356.2707-.4832.406-.7245.1693-.3013.34-.5985.506-.9092.1369-.2553.27-.5225.4049-.7842.161-.3124.3235-.6209.482-.9421.134-.2717.2649-.5547.3969-.8327.1544-.3242.3095-.645.4611-.9775.1318-.2894.26-.5895.39-.8853.1473-.3362.2958-.6695.4408-1.0135.1281-.3043.2528-.6187.3789-.9294.1414-.349.284-.6953.4227-1.0517.1244-.32.2454-.6486.3678-.9743.1355-.3617.272-.7217.405-1.0909.12-.3327.2363-.6741.3541-1.0128.13-.3755.2609-.75.3888-1.1328.1156-.3478.2282-.7034.3416-1.0571.1239-.386.2479-.7708.3691-1.164.1119-.3637.2209-.7345.33-1.1044.1173-.3961.2349-.7917.35-1.1947.1075-.3791.2125-.7645.3176-1.15.1112-.4067.2221-.8133.3306-1.2269.1028-.3917.2024-.7892.3026-1.1871.1052-.4179.21-.8366.3124-1.2612.0981-.4069.1936-.8192.2891-1.2317.0984-.4261.1966-.8526.292-1.285.0938-.4234.1848-.8516.2756-1.2806.056-.2646.1151-.5228.17-.79l.0309.0049.001-.0049a6.3657,6.3657,0,0,1,4.4865,2.3919,6.5379,6.5379,0,0,1,.8725,5.84,100.7694,100.7694,0,0,1-3.9051,11.3918A93.24,93.24,0,0,1,177.5522,141.7515Zm10.0622-26.8648.0007.0007,0,0Z"/><path class="cls-2" d="M100.2482,189.43q1.8113-.0825,3.6126-.2344c.1563-.0132.3121-.0279.4682-.0417q3.875-.3461,7.691-1.0052l.0483-.0081q1.8885-.3291,3.7576-.7375.16-.0346.321-.07,1.8212-.4013,3.6227-.8737c.1094-.0289.2181-.06.3271-.0891q1.78-.4744,3.5389-1.016c.0445-.0137.0894-.0265.1335-.04,1.0679-.3321,2.1259-.6926,3.18-1.063.3095-.1089.62-.2154.928-.3273.9124-.3309,1.8175-.6806,2.7187-1.04q.7053-.2827,1.405-.5753c.5768-.24,1.1491-.4918,1.7209-.7444q1.2373-.5481,2.4562-1.1279c.23-.11.46-.2219.6888-.3335a93.7929,93.7929,0,0,0,18.3613-11.7946h-.0115c-3.632,0-11.3313-1.04-22.2617-7.8973h-.01l-.2911-.1841-.0125-.0076A101.4843,101.4843,0,0,1,112.89,143.476c-.3978-.4263-.7954-.8518-1.1915-1.2879q-4.51-4.9635-8.8906-10.7651a6.6367,6.6367,0,0,0-5.28-2.6H8.386a93.9765,93.9765,0,0,0,31.6764,42.0949l.0265.02c.4884.3652.9707.7379,1.4664,1.0938.1325.0947.2633.1917.3961.2859.4663.3308.9375.6553,1.41.9778q.7938.54,1.5972,1.0643c.311.2033.6217.4065.9351.606q1.1916.7554,2.4043,1.4764.2195.13.44.26a93.6747,93.6747,0,0,0,25.7775,10.3233c.05.012.1.0243.15.0358q3.318.779,6.71,1.3159c.138.0219.2759.044.4141.0653,1.0867.1669,2.1763.322,3.2729.4511.0441.0049.0883.01.1325.0152q1.71.1985,3.4346.3311c.7817.0606,1.568.1,2.3538.1416.3363.0179.6705.0464,1.0075.0609q.3475.0147.6955.0265c1.0909.0382,2.184.0638,3.2813.0638l.0152,0c1.2339,0,2.4647-.0311,3.693-.08C99.8666,189.4447,100.0578,189.4388,100.2482,189.43Z"/><path class="cls-4" d="M158.199,149.5425c.2949-.0967.59-.21.8844-.3364.0523-.0226.1048-.0449.1574-.0685.2569-.1141.5131-.2425.77-.3789.0734-.0393.147-.0759.22-.1171.2434-.1357.4862-.2859.7291-.4417.0754-.0484.1509-.0923.2263-.1426.3112-.2082.6216-.43.9311-.6717a23.3787,23.3787,0,0,0,4.0806-4.2541c5.1064-6.674,9.4135-17.8874,12.1323-31.5773.5686-2.8562,1.0756-5.8862,1.5046-9.0067a4.6946,4.6946,0,0,0-4.6524-5.3135H129.9353c.0118.1094.0231.22.0348.33q.0645.5863.1328,1.1684c.0363.3117.0724.6236.11.9338q.0689.5637.1408,1.1226.0612.476.1237.95.0729.5463.15,1.0884.0673.48.1367.9572.0765.5246.1566,1.0457.075.49.1516.9758.08.504.163,1.0035.0813.4907.1649.9787.0847.4934.1723.9829.0868.486.1757.968t.18.9571q.0931.4838.1882.964.0929.466.1875.9277.1.4844.202.9642.0957.45.1932.8951.1056.48.214.9549.1.4417.2027.88.11.47.2236.9351c.0694.2856.1391.5711.2095.854q.1172.47.2374.9331.1067.4131.2149.8229c.0813.3068.1642.6108.2474.9142.0744.2714.1492.5426.2248.8113.0845.2987.17.5944.2558.8894q.1155.3976.2329.7918c.0878.294.1774.5843.2667.8744.0793.2564.1583.5127.2386.7659.0918.2886.185.5741.2783.859.0812.2484.1624.4972.2452.7426.0949.2818.1911.56.2873.8377.0837.2412.1674.4827.2523.7207.0982.2759.1981.5471.2977.8188.0862.2341.1721.4687.2592.6994.1.266.2027.5277.3046.79.0888.2282.1774.4574.2675.6825.104.26.21.5151.3156.7706.09.2189.18.439.2716.6545.108.2545.2177.5036.3272.7535.0915.2091.1826.42.2753.6258.1117.2483.2253.4906.3385.7338.0928.2.1853.402.2793.5986.1146.24.2309.4734.3467.7082.0953.1927.19.388.2864.5778.1169.23.2354.4535.3537.6785.0977.1858.1946.3741.2933.5566.119.22.24.4332.36.6482.1.1792.2.361.3007.5367.1227.2128.2474.4182.3711.6258.1006.1682.2005.34.3018.5044.1286.2093.26.4108.39.6145.0989.1546.1966.3129.2965.4639.1345.2037.2707.3992.4061.5971.098.1425.1949.2888.2936.4282.14.1978.2822.3873.4238.5785.0962.13.1914.2648.2884.3917.15.1973.3023.3848.454.5742.09.1124.1791.23.27.3394.1673.203.3367.3959.5058.5895.077.0881.1529.1814.23.268q.37.4134.7468.7984c.334.3428.67.6619,1.007.965.1448.13.2905.2454.4356.3679.1882.159.3762.3188.5654.4655s.3824.2822.5741.4172c.14.0992.28.1988.4206.2911.2214.1448.4435.2793.6658.4071.107.0619.2138.1228.3208.18.2471.133.495.2577.7434.37.0763.0348.1531.0672.2294.1.2742.1173.5483.226.8234.318.0378.0128.0756.0231.1132.0354a9.3745,9.3745,0,0,0,5.8719-.0008Z"/><path class="cls-2" d="M146.7369,157.86q-.8238-.459-1.6637-.9966c-.0763-.0488-.1526-.1006-.2287-.15-.57-.3733-1.1449-.77-1.7241-1.1977-.0613-.0454-.1229-.0937-.1845-.14-.5976-.4465-1.1992-.9177-1.8046-1.4215-.0358-.03-.0722-.0621-.108-.0923-.5114-.428-1.0256-.8788-1.5415-1.3473h-.009l-.3549-.3279q-1.0389-.96-2.0674-2.01c-10.2848-10.4929-19.7172-27.54-26.7448-48.4214a6.634,6.634,0,0,0-6.2979-4.52L16.1029,97.234h-.0321a4.662,4.662,0,0,0-3.8435,1.9886,4.5733,4.5733,0,0,0-.6025,4.2,167.1605,167.1605,0,0,0,9.883,22.9317H97.5353a9.1318,9.1318,0,0,1,6.5647,2.787,8.729,8.729,0,0,1,.6818.7993q2.4434,3.2393,4.93,6.2086c.1087.13.2167.2641.3254.3937.3895.4629.7812.9134,1.1724,1.3665.2034.2358.4059.4771.61.71.3428.3915.6872.7716,1.0308,1.1557.2542.2837.5072.5731.7617.8523.32.3515.6408.6916.9613,1.0362.2793.3.5579.6055.8377.9.304.3206.6091.63.9137.9447.2989.3087.5971.6219.8965.9247.292.295.585.58.8778.87.3127.31.6251.6238.9388.9272.2881.2792.5777.548.8663.8219.319.3023.6376.6084.9576.9043.2872.2661.5758.5223.8636.7829.3223.2918.6443.5873.9675.8725.29.256.5806.5021.8712.7532.3215.2773.643.5585.9653.8295.2959.2488.5924.4881.8889.7313.318.2612.6356.5255.9539.78.3011.2408.6035.472.9054.7068.3146.2454.6287.4938.9441.7326.309.2344.6189.4589.9284.6874.3078.227.6155.4575.9238.6784.3192.2287.6393.4481.959.67.3.2089.6.4209.9.6241.3289.2222.6583.4347.9876.65.2489.163.4977.3279.7468.4872H133.7c.0976.0621.1948.1291.2928.1907q1.9415,1.2309,3.8749,2.277h.02l-.0032-.0015h17.3222a5.8822,5.8822,0,0,1-.6236-.0246,18.02,18.02,0,0,1-7.663-2.4416h-.0427C146.8312,157.9182,146.7833,157.8853,146.7369,157.86Z"/><path class="cls-4" d="M162.1742,156.52a1.1782,1.1782,0,0,1,.1745-.0936,24.1673,24.1673,0,0,0,3.0535-1.5991c.0474-.03.1007-.056.148-.0859.02-.0123.04-.0275.0594-.04,4.221-2.69,8.1438-6.9092,11.6591-12.5433a.9213.9213,0,0,1,.0661-.1043c.066-.0989.1236-.2018.1857-.3026a93.29,93.29,0,0,0,4.4706-9.0432,100.6678,100.6678,0,0,0,3.9053-11.3928,6.5376,6.5376,0,0,0-.8722-5.84,6.3588,6.3588,0,0,0-4.4556-2.387l-.0309-.0049c-.055.267-.1141.5252-.17.79-.0908.429-.1818.8572-.2756,1.2806-.0954.4324-.1936.8589-.292,1.285-.0955.4125-.191.8248-.2891,1.2317-.1021.4246-.2072.8433-.3124,1.2612-.1.3979-.2.7954-.3026,1.1871-.1085.4136-.2194.82-.3306,1.2269-.1051.385-.21.77-.3176,1.15-.1146.403-.2322.7986-.35,1.1947-.1094.37-.2184.7407-.33,1.1044-.1212.3932-.2452.778-.3691,1.164-.1134.3537-.226.7093-.3416,1.0571-.1279.3828-.2585.7573-.3888,1.1328-.1178.3387-.2344.68-.3541,1.0128-.133.3692-.2695.7292-.405,1.0909-.1224.3257-.2434.6543-.3678.9743-.1387.3564-.2813.7027-.4227,1.0517-.1261.3107-.2508.6251-.3789.9294-.145.344-.2935.6773-.4408,1.0135-.13.2958-.2584.5959-.39.8853-.1516.3325-.3067.6533-.4611.9775-.132.278-.2629.561-.3969.8327-.1585.3212-.321.63-.482.9421-.1347.2617-.268.5289-.4049.7842-.1664.3107-.3367.6079-.506.9092-.1353.2413-.2688.4889-.406.7245-.1811.311-.3664.6072-.55.9073-.1294.2113-.257.43-.3878.6362-.2049.3222-.414.6285-.6221.9379-.1147.17-.2268.3476-.3422.5132q-.4876.7017-.9878,1.356a25.9247,25.9247,0,0,1-4.52,4.7005,13.6222,13.6222,0,0,1-8.41,3.1865l-.0149.0005H143.2782c.0356.0284.0709.0579.1065.0864q.6811.5422,1.355,1.0332c.0795.0576.1585.1129.2378.17.4567.3266.9108.64,1.36.9294l.0353.0238c.4565.2932.9076.5612,1.3552.8155.081.0456.162.0925.2425.1374q.6486.359,1.2825.6624c.0754.0361.1493.069.2243.1036.4339.2012.8634.3882,1.2851.5487l.01.0042c.4224.16.8357.293,1.2441.4116.0743.0216.1487.0444.2228.0645q.5863.16,1.1525.2609c.07.0125.1391.0218.2091.0331a10.559,10.559,0,0,0,1.1422.1267c.0986.01.1774.0135.25.0157l.041.001c.0636.0012.1237.0012.1819.0017l.0081,0c.1526-.001.3087.002.4643-.0132A18.0126,18.0126,0,0,0,162.1742,156.52Z"/><path class="cls-4" d="M137.8876,160.4112c.0461.0255.0925.0515.1392.0765q1.042.564,2.0747,1.0725c.1313.0646.2619.1266.3929.19.71.3431,1.4163.6724,2.1146.975l.0154.0061c.6938.3,1.3785.5729,2.0581.831.1284.0491.2575.0994.3853.1468q.9825.364,1.94.668c.1252.0395.2486.0761.3728.1141.6589.2023,1.3115.3895,1.9489.5471l.011.0024c.6347.1566,1.2534.2835,1.8632.3947.1144.0208.23.0434.3431.0628q.8784.1486,1.7172.2322c.1075.0108.2128.0179.3191.027.5752.0488,1.14.0814,1.6828.0814.1927,0,.3691-.0162.561-.0326.0346-.0029.0952-.0066.13-.0066h2.2444c.1317-.1178.2581-.241.3894-.3593q.684-.617,1.3543-1.2492.643-.6033,1.2742-1.2192.5709-.5559,1.1343-1.12.4977-.5015.9873-1.0112c.3073-.3185.6106-.641.9132-.9642q.7863-.839,1.5511-1.6973c.3173-.3559.6358-.71.9478-1.0713.1173-.1352.2395-.266.3558-.402l-.0333.0209c-.05.0314-.1.063-.15.094l0,0-.013.0076-.0034.0019c-.5245.3338-1.0784.6531-1.6527.9569-.1752.0928-.3637.1735-.5429.2631-.38.19-.7558.3836-1.1515.5576a1.1812,1.1812,0,0,1-.1919.1041,20.9171,20.9171,0,0,1-5.622,1.5382q-.9314.1157-1.8606.1392c-.1475.0174-.3835.0194-.6216.0194H137.8844Z"/></g></svg>